#N canvas 47 546 668 539 10;
#X obj 71 380 sendOSC;
#X floatatom 69 433 5 0 0 0 - - -;
#X floatatom 123 435 5 0 0 0 - - -;
#X msg 53 487 disconnect;
#X msg 35 461 connect localhost 6600;
#X floatatom 85 255 5 0 65535 0 - - -;
#X floatatom 136 257 5 0 254 0 - - -;
#X floatatom 180 255 5 0 254 0 - - -;
#X obj 73 348 print r;
#X msg 73 320 send /setHue \$1 \$2 \$3 \$4;
#X obj 58 62 vsl 15 128 0 65535 0 0 empty empty empty 0 -9 0 10 -262144
-1 -1 5300 1;
#X obj 109 61 vsl 15 128 1 254 0 0 empty empty empty 0 -9 0 10 -262144
-1 -1 11500 1;
#X obj 153 62 vsl 15 128 0 254 0 0 empty empty empty 0 -9 0 10 -262144
-1 -1 11700 1;
#X obj 85 232 int;
#X obj 58 202 t b a;
#X obj 109 200 t b a;
#X obj 136 233 int;
#X obj 153 200 t b a;
#X obj 180 232 int;
#X obj 73 295 pack s i i i;
#X msg 43 259 "2";
#X connect 0 0 1 0;
#X connect 0 1 2 0;
#X connect 3 0 0 0;
#X connect 4 0 0 0;
#X connect 5 0 19 1;
#X connect 6 0 19 2;
#X connect 7 0 19 3;
#X connect 9 0 0 0;
#X connect 9 0 8 0;
#X connect 10 0 14 0;
#X connect 11 0 15 0;
#X connect 12 0 17 0;
#X connect 13 0 5 0;
#X connect 14 0 20 0;
#X connect 14 1 13 0;
#X connect 15 0 20 0;
#X connect 15 1 16 0;
#X connect 16 0 6 0;
#X connect 17 0 20 0;
#X connect 17 1 18 0;
#X connect 18 0 7 0;
#X connect 19 0 9 0;
#X connect 20 0 19 0;
